# xmcd
#
# Track frame offsets: 
#        183
#        18445
#        33468
#        41943
#        61233
#        78903
#        98193
#        114993
#        128763
#        155383
#        164040
#        187473
#        208450
#        224020
#        251043
#        263408
#        279398
#        304725
#
# Disc length: 4382 seconds
#
# Revision: 5
# Processed by: cddbd v1.5.2PL0 Copyright (c) Steve Scherf et al.
# Submitted via: ExactAudioCopy v1.0b3
#
DISCID=0e111c12
DTITLE=Various Artist - Nothin' But The Blues - Disc 1
DYEAR=1998
DGENRE=Blues
TTITLE0=Tommy Tucker - Hi Heel Sneakers
TTITLE1=Louisiana Red - Alabama Train
TTITLE2=Johnny "Guitar" Watson - Looking Back
TTITLE3=Byther Smith - Tell Me How You Like It
TTITLE4=Muddy Waters - Walking Blues
TTITLE5=King Curtis - Home Cookin'
TTITLE6=Billy Boy Arnold - Back Door Friend
TTITLE7=Buddy Guy - This Is The End
TTITLE8=Mississippi Fred McDowell - 61 Highway
TTITLE9=Earl Hooker - Hot 'N' Heavy
TTITLE10=Magic Sam - Cummins Prison Farm
TTITLE11=Mighty Joe Young - Why Do You Want To Hurt Me
TTITLE12=Louisiana Red - Lightnin' Bug
TTITLE13=Joe Carter - Stormy Monday
TTITLE14=Tommy Trucker - Tell Me Who's Wrong
TTITLE15=Big Walter "Shakey" Horton - That Ain't It
TTITLE16=Eddie Clearwater - Major Daley's Blues
TTITLE17=Troyce Key and JJ Malone - I Gotta New Car-Framed
EXTD=YEAR: 1998
EXTT0=
EXTT1=
EXTT2=
EXTT3=
EXTT4=
EXTT5=
EXTT6=
EXTT7=
EXTT8=
EXTT9=
EXTT10=
EXTT11=
EXTT12=
EXTT13=
EXTT14=
EXTT15=
EXTT16=
EXTT17=
PLAYORDER=
